# AST/ASF file generated using VICON BodyLanguage
# -----------------------------------------------
:version 1.10
:name VICON
:units
  mass 1.0
  length 0.45
  angle deg
:documentation
   .ast/.asf automatically generated from VICON data using
   VICON BodyBuilder and BodyLanguage model FoxedUp or BRILLIANT.MOD
:root
   order TX TY TZ RX RY RZ
   axis XYZ
   position 0 0 0  
   orientation 0 0 0 
:bonedata
  begin
     id 1 
     name lhipjoint
     direction 0.522423 -0.726805 0.445902 
     length 2.25074 
     axis 0 0 0  XYZ
  end
  begin
     id 2 
     name lfemur
     direction 0.34202 -0.939693 0  
     length 6.54609  
     axis 0 0 20  XYZ
    dof rx ry rz
    limits (-160.0 20.0)
           (-70.0 70.0)
           (-60.0 70.0)
  end
  begin
     id 3 
     name ltibia
     direction 0.34202 -0.939693 0   
     length 7.7528   
     axis 0 0 20   XYZ
    dof rx
    limits (-10.0 170.0)
  end
  begin
     id 4 
     name lfoot
     direction 0.143696 -0.394801 0.90746   
     length 1.73269   
     axis -90 7.62852e-016 20   XYZ
    dof rx rz
    limits (-45.0 90.0)
           (-70.0 20.0)
  end
  begin
     id 5 
     name ltoes
     direction 1.53633e-011 -4.21912e-011 1   
     length 0.858383   
     axis -90 7.62852e-016 20   XYZ
    dof rx
    limits (-90.0 20.0)
  end
  begin
     id 6 
     name rhipjoint
     direction -0.515943 -0.73016 0.447961   
     length 2.2404  
     axis 0 0 0  XYZ 
  end
  begin
     id 7 
     name rfemur
     direction -0.34202 -0.939693 0   
     length 6.84377   
     axis 0 0 -20   XYZ
    dof rx ry rz
    limits (-160.0 20.0)
           (-70.0 70.0)
           (-70.0 60.0)
  end
  begin
     id 8 
     name rtibia
     direction -0.34202 -0.939693 0   
     length 7.57596   
     axis 0 0 -20   XYZ
    dof rx
    limits (-10.0 170.0)
 end
 begin
     id 9 
     name rfoot
     direction -0.0999372 -0.274575 0.956358   
     length 1.78783  
     axis -90 -7.62852e-016 -20   XYZ
    dof rx rz
    limits (-45.0 90.0)
           (-20.0 70.0)
  end
  begin
     id 10 
     name rtoes
     direction -1.53535e-011 -4.21895e-011 1   
     length 0.898614   
     axis -90 -7.62852e-016 -20   XYZ
    dof rx
    limits (-90.0 20.0)
  end
  begin
     id 11 
     name lowerback
     direction -0.011775 0.996164 -0.0867116   
     length 1.91499   
     axis 0 0 0   XYZ
    dof rx ry rz
    limits (-20.0 45.0)
           (-30.0 30.0)
           (-30.0 30.0)
  end
  begin
     id 12 
     name upperback
     direction -0.00189771 0.999673 -0.0254833   
     length 1.92213   
     axis 0 0 0   XYZ
    dof rx ry rz
    limits (-20.0 45.0)
           (-30.0 30.0)
           (-30.0 30.0)
  end
  begin
     id 13 
     name thorax
     direction 0.00335995 0.999878 0.0152401   
     length 1.93138   
     axis 0 0 0   XYZ
    dof rx ry rz
    limits (-20.0 45.0)
           (-30.0 30.0)
           (-30.0 30.0)
  end
  begin
     id 14 
     name lowerneck
     direction 0.00233191 0.998509 0.0545404   
     length 1.59408   
     axis 0 0 0   XYZ
    dof rx ry rz
    limits (-20.0 45.0)
           (-30.0 30.0)
           (-30.0 30.0)
  end
  begin
     id 15 
     name upperneck
     direction 0.07881 0.9956 -0.0506934   
     length 1.59344   
     axis 0 0 0   XYZ
    dof rx ry rz
    limits (-20.0 45.0)
           (-30.0 30.0)
           (-30.0 30.0)
  end
  begin
     id 16
     name head
     direction 0.0261681 0.999378 -0.0236299  
     length 1.60935  
     axis 0 0 0   XYZ
    dof rx ry rz
    limits (-20.0 45.0)
           (-30.0 30.0)
           (-30.0 30.0)
  end
  begin
     id 17 
     name lclavicle
     direction 0.96643 0.252035 0.0499195  
     length 3.82153  
     axis 0 0 0   XYZ
    dof ry rz
    limits (-20.0 10.0)
           (0.0 20.0)
  end
  begin
     id 18 
     name lhumerus
     direction 1 -4.48967e-011 -2.01614e-018   
     length 4.87796   
     axis 180 -30 -90   XYZ
    dof rx ry rz
    limits (-60.0 90.0)
           (-90.0 90.0)
           (-90.0 90.0)
  end
  begin
     id 19
     name lradius
     direction 1 -4.48958e-011 3.1409e-027   
     length 3.23169   
     axis 180 -30 -90   XYZ
    dof rx
    limits (-10.0 170.0)
  end
  begin
     id 20
     name lwrist
     direction 1 -4.48924e-011 1.0365e-027   
     length 1.61584   
     axis -2.56395e-016 90 90   XYZ
    dof ry
    limits (-180.0 0.0)
 end
  begin
     id 21 
     name lhand
     direction 1 -4.49055e-011 2.09488e-027   
     length 0.731324   
     axis -1.32723e-015 90 90   XYZ
    dof rx rz
    limits (-90.0 90.0)
           (-45.0 45.0)
  end
  begin
     id 22 
     name lfingers
     direction 1 -4.48935e-011 4.14981e-027   
     length 0.589612   
     axis -2.6545e-015 90 90   XYZ
    dof rx
    limits (0.0 90.0)
  end
  begin
     id 23
     name lthumb
     direction 0.707107 -6.35097e-011 0.707107   
     length 0.846569   
     axis -90 45 5.05613e-014   XYZ
    dof rx rz
    limits (-45.0 45.0)
           (-45.0 45.0)
  end
  begin
     id 24 
     name rclavicle
     direction -0.979337 0.201016 0.0221522   
     length 3.73827  
     axis 0 0 0   XYZ 
    dof ry rz
    limits (-10.0 20.0)
           (-20.0 0.0)
  end
  begin
     id 25 
     name rhumerus
     direction -1 -4.48971e-011 1.65907e-027  
     length 4.9143   
     axis 180 30 90   XYZ
    dof rx ry rz
    limits (-90.0 60.0)
           (-90.0 90.0)
           (-90.0 90.0)
  end
  begin
     id 26 
     name rradius
     direction -1 -4.4894e-011 2.17871e-028   
     length 3.29093   
     axis 180 30 90   XYZ
    dof rx
    limits (-10.0 170.0)
  end
  begin
     id 27 
     name rwrist
     direction -1 -4.48971e-011 1.04038e-027   
     length 1.64546   
     axis -2.56395e-016 -90 -90   XYZ
    dof ry
    limits (-180.0 0.0)
  end
  begin
     id 28
     name rhand
     direction -1 -4.49017e-011 2.08843e-027   
     length 0.54512   
     axis -1.32723e-015 -90 -90   XYZ
    dof rx rz
    limits (-90.0 90.0)
           (-45.0 45.0)
  end
  begin
     id 29
     name rfingers
     direction -1 -4.48918e-011 4.1439e-027   
     length 0.43949   
     axis -2.6545e-015 -90 -90   XYZ
    dof rx
    limits (0.0 90.0)
  end
  begin
     id 30
     name rthumb
     direction -0.707107 -6.35065e-011 0.707107   
     length 0.631022   
     axis -90 -45 -5.05613e-014   XYZ
    dof rx rz
    limits (-45.0 45.0)
           (-45.0 45.0)
  end
:hierarchy
  begin
    root lhipjoint rhipjoint lowerback
    lhipjoint lfemur
    lfemur ltibia
    ltibia lfoot
    lfoot ltoes
    rhipjoint rfemur
    rfemur rtibia
    rtibia rfoot
    rfoot rtoes
    lowerback upperback
    upperback thorax
    thorax lowerneck lclavicle rclavicle
    lowerneck upperneck
    upperneck head
    lclavicle lhumerus
    lhumerus lradius
    lradius lwrist
    lwrist lhand lthumb
    lhand lfingers
    rclavicle rhumerus
    rhumerus rradius
    rradius rwrist
    rwrist rhand rthumb
    rhand rfingers
  end

#!OML:ASF H:\BreakDance\Project 1\Capture day 1\Session 1\Male.ASF
:FULLY-SPECIFIED
:DEGREES
814
root -14.8285 12.5068 -5.79796 83.353 -19.2892 -1.34791
lowerback 24.2403 1.81323 1.01524
upperback 9.80085 2.1731 -2.05027
thorax -2.56503 1.05139 -3.34294
lowerneck -11.2953 -2.17744 2.41451
upperneck -15.5153 -2.72223 6.61415
head -3.04952 -1.80973 1.74345
rclavicle 5.32743e-014 4.29375e-014
rhumerus 60.9716 -6.62526 -40.9469
rradius 29.8873
rwrist 10.7292
rhand -40.593 -38.0016
rfingers 7.12502
rthumb -13.5394 -787.541
lclavicle 5.32743e-014 4.29375e-014
lhumerus 58.0756 1.80769 63.3066
lradius 43.1269
lwrist -36.4746
lhand -47.8575 -73.1849
lfingers 7.12502
lthumb -20.5315 -44.2506
rfemur -59.0498 -11.6373 25.0218
rtibia 70.3277
rfoot -23.1452 -2.55253
rtoes 36.1804
lfemur -94.6266 -7.10787 -28.6294
ltibia 82.1213
lfoot -39.859 -0.254497
ltoes -35.3994
815
root -14.8311 12.5774 -5.75468 83.9941 -19.6085 -2.02469
lowerback 24.0592 2.01102 0.892169
upperback 9.72992 2.37898 -2.1799
thorax -2.54021 1.14693 -3.45894
lowerneck -10.8677 -2.06566 2.70526
upperneck -15.4529 -2.59061 6.41471
head -3.10943 -1.75558 1.6344
rclavicle -6.99722e-014 1.98785e-015
rhumerus 61.0008 -7.21354 -43.5501
rradius 30.5534
rwrist 12.4018
rhand -38.3279 -32.3071
rfingers 7.12502
rthumb -11.3555 -781.98
lclavicle -6.99722e-014 1.98785e-015
lhumerus 57.8862 0.80547 62.2818
lradius 43.7799
lwrist -35.79
lhand -47.6392 -74.0352
lfingers 7.12502
lthumb -20.3217 -45.0784
rfemur -55.5926 -12.5555 25.3899
rtibia 67.6164
rfoot -22.9949 -3.02941
rtoes 36.8184
lfemur -94.6266 -6.99401 -27.981
ltibia 81.208
lfoot -39.5694 -0.709152
ltoes -33.306
816
root -14.8336 12.6462 -5.71009 84.6337 -19.9001 -2.63625
lowerback 23.8484 2.18514 0.720218
upperback 9.62939 2.55215 -2.24717
thorax -2.54087 1.22445 -3.47006
lowerneck -10.4708 -1.94937 2.8798
upperneck -15.2514 -2.44923 6.20975
head -3.11329 -1.68282 1.53872
rclavicle 1.51076e-014 3.57812e-014
rhumerus 60.9698 -7.68342 -46.0235
rradius 31.223
rwrist 13.8708
rhand -36.0676 -26.9167
rfingers 7.12502
rthumb -9.17507 -776.697
lclavicle 1.51076e-014 3.57812e-014
lhumerus 57.6881 -0.0756386 61.5575
lradius 44.2688
lwrist -35.0792
lhand -47.3871 -74.0879
lfingers 7.12502
lthumb -20.0794 -45.1055
rfemur -52.0297 -13.6494 25.6335
rtibia 65.0821
rfoot -22.8652 -3.60617
rtoes 37.1011
lfemur -94.6192 -6.92423 -27.2972
ltibia 80.3008
lfoot -39.4846 -1.83529
ltoes -31.2616
817
root -14.8375 12.713 -5.66401 85.2753 -20.1848 -3.20175
lowerback 23.6515 2.2777 0.585206
upperback 9.49174 2.63185 -2.36741
thorax -2.5902 1.25925 -3.53759
lowerneck -10.2022 -1.79158 2.99414
upperneck -14.8423 -2.25314 6.06918
head -3.02188 -1.56978 1.46745
rclavicle 2.78299e-014 -3.4191e-014
rhumerus 60.8753 -7.93023 -48.3464
rradius 31.8169
rwrist 14.8724
rhand -34.7873 -22.8266
rfingers 7.12502
rthumb -7.93944 -772.657
lclavicle 2.78299e-014 -3.4191e-014
lhumerus 57.4798 -0.782343 60.9738
lradius 44.586
lwrist -34.3229
lhand -47.1075 -73.3045
lfingers 7.12502
lthumb -19.8106 -44.2941
rfemur -48.3653 -14.8583 25.7068
rtibia 62.7638
rfoot -22.7241 -4.2206
rtoes 37.2043
lfemur -94.5917 -6.86866 -26.5916
ltibia 79.3855
lfoot -39.5024 -3.32174
ltoes -28.7181
818
root -14.8442 12.7767 -5.61812 85.9432 -20.4628 -3.70835
lowerback 23.4456 2.2806 0.479795
upperback 9.32709 2.60659 -2.5375
thorax -2.66691 1.24598 -3.65029
lowerneck -10.0706 -1.57409 3.00212
upperneck -14.3164 -1.96567 6.04694
head -2.86659 -1.40054 1.44945
rclavicle -3.33958e-014 -1.74931e-014
rhumerus 60.7226 -7.91494 -50.4002
rradius 32.2745
rwrist 15.3552
rhand -35.1782 -20.3113
rfingers 7.12502
rthumb -8.31675 -770.128
lclavicle -3.33958e-014 -1.74931e-014
lhumerus 57.2592 -1.26794 60.5966
lradius 44.7341
lwrist -33.5616
lhand -46.7591 -71.7809
lfingers 7.12502
lthumb -19.4756 -42.7363
rfemur -44.6366 -16.1302 25.5961
rtibia 60.6877
rfoot -22.5174 -4.77384
rtoes 37.547
lfemur -94.5805 -6.85635 -26.0615
ltibia 78.3974
lfoot -39.4249 -2.94721
ltoes -29.4154
819
root -14.8543 12.8385 -5.57172 86.657 -20.7243 -4.17015
lowerback 23.2269 2.21097 0.426022
upperback 9.14554 2.49951 -2.78137
thorax -2.75439 1.19653 -3.85228
lowerneck -10.0764 -1.31113 2.94884
upperneck -13.7649 -1.60417 6.19015
head -2.68117 -1.19159 1.49542
rclavicle 3.65764e-014 -1.82882e-014
rhumerus 60.4754 -7.70932 -52.214
rradius 32.5711
rwrist 15.4632
rhand -36.8592 -18.8419
rfingers 7.12502
rthumb -9.93882 -768.587
lclavicle 3.65764e-014 -1.82882e-014
lhumerus 57.1174 -1.5659 60.3419
lradius 44.7025
lwrist -32.7256
lhand -46.293 -69.6307
lfingers 7.12502
lthumb -19.0275 -40.5414
rfemur -40.8596 -17.407 25.3109
rtibia 58.8446
rfoot -22.281 -5.35812
rtoes 37.855
lfemur -94.5878 -6.88709 -25.5654
ltibia 77.3433
lfoot -39.1123 -1.29384
ltoes -30.5642
